<svg xmlns="http://www.w3.org/2000/svg" viewBox="0 0 54 54"><defs><style>.cls-1{fill:#f9c573;}</style></defs><g id="Layer_2" data-name="Layer 2"><g id="Layer_1-2" data-name="Layer 1"><path class="cls-1" d="M29.14,28.88a16.93,16.93,0,0,0-4.26-1.47.93.93,0,0,0-1.28.77c-.4,1.49-.8,3-1.19,4.47A.82.82,0,0,0,23,33.81a23.89,23.89,0,0,0,4.44.86c2.26,0,3.43-.7,3.78-2.11S30.92,29.81,29.14,28.88Z"/><path class="cls-1" d="M30.9,19.66a12.47,12.47,0,0,0-3.56-1.35c-.73-.17-1.08.1-1.26.79-.33,1.27-.67,2.53-1,3.79a.84.84,0,0,0,.64,1.22,11.79,11.79,0,0,0,3.71.58h.16c1.61,0,2.5-.61,2.85-1.86A2.68,2.68,0,0,0,30.9,19.66Z"/><path class="cls-1" d="M27,0A27,27,0,1,0,54,27,27,27,0,0,0,27,0Zm8.68,28c2.37,1.79,2.63,4.1,1.65,6.73a6.39,6.39,0,0,1-6,4.55c-.34,0-.69,0-1,0v.06c-.8-.09-1.62-.14-2.41-.3-1.12-.22-1.66.22-1.85,1.31-.15.8-.45,1.56-.64,2.35s-.54,1-1.33.84c-2-.41-2.18-.62-1.65-2.61.15-.56.28-1.13.47-1.68.28-.8.15-1.31-.76-1.57s-1.29,0-1.46.91S20.2,40.34,20,41.2s-.6,1.12-1.42.87c-.36-.12-.74-.21-1.12-.3-.76-.18-1-.62-.73-1.38.3-1,.49-2,.8-2.9.24-.74,0-1.09-.7-1.28-1.35-.37-2.68-.76-4-1.12-.77-.21-1-.6-.61-1.34.15-.27.27-.56.4-.84.79-1.72.8-1.76,2.64-1.24.95.27,1.52,0,1.77-.91,1.16-4.21,2.34-8.42,3.46-12.64.33-1.25,0-1.78-1.24-2.21a12.73,12.73,0,0,0-1.34-.38.74.74,0,0,1-.62-1c0-.08,0-.15,0-.23.51-2.41.51-2.41,2.88-1.77.86.23,1.73.42,2.57.69s1.4,0,1.62-.89.49-1.79.72-2.69c.19-.74.6-1,1.37-.77a6.7,6.7,0,0,0,1,.27,1,1,0,0,1,.86,1.44c-.23.82-.41,1.65-.68,2.46s-.18,1.31.75,1.57,1.25-.22,1.45-1,.48-1.64.67-2.46.61-1,1.35-.83l.34.09c1.9.47,1.88.46,1.39,2.31-.27,1-.93,2-.64,2.89s1.62,1,2.47,1.54c4.23,2.49,4.44,7.19.41,10C35.43,27.38,35.1,27.59,35.68,28Z"/></g></g></svg>