<svg xmlns="http://www.w3.org/2000/svg" viewBox="0 0 160.33 160.54"><defs><style>.cls-1{fill:#f9c573;}</style></defs><g id="Layer_2" data-name="Layer 2"><g id="Layer_1-2" data-name="Layer 1"><path class="cls-1" d="M97,153.74q.08-6.33.08-12.19V120.66q0-6-.16-13.85c-.1-5.23-.26-10.47-.47-15.75q-7.6,0-14.88.39T67,92.64a41.72,41.72,0,0,0,1-9,28.91,28.91,0,0,0-.32-4.2c-.21-1.42-.42-3-.63-4.82q11.86,1.11,23.66,1.26t23.66.16q11.4,0,23.27-.16,11.1-.14,22.77-1.14a80.23,80.23,0,1,0-63.46,84.09C96.9,157.13,96.94,155.44,97,153.74Z"/><path class="cls-1" d="M147.37,91.45q-7.27-.39-14.87-.39-.33,5.22-.4,12T132,116.54v8.55q0,8.73.07,16.46a80.16,80.16,0,0,0,27.53-49.13Q153.5,91.81,147.37,91.45Z"/></g></g></svg>