<svg xmlns="http://www.w3.org/2000/svg" viewBox="0 0 54 54"><defs><style>.cls-1{fill:#f9c573;}</style></defs><g id="Layer_2" data-name="Layer 2"><g id="Layer_1-2" data-name="Layer 1"><path class="cls-1" d="M27,0A27,27,0,1,0,54,27,27,27,0,0,0,27,0ZM14.37,25.13Q19.2,17.2,24,9.23L26.57,5c.44-.73.88-.82,1.36,0l5.7,9.47q3.32,5.49,6.66,11c.79,1.3.81,1.53-.48,2.25-3.83,2.13-7.7,4.21-11.56,6.29a7.67,7.67,0,0,1-1,.4,8,8,0,0,1-2.19-.94c-3.25-1.81-6.47-3.68-9.8-5.34L15.1,28C13.35,27,13.34,26.82,14.37,25.13Zm24.76,6.58q-5.62,7.8-11.23,15.61c-.6.84-.94.51-1.38-.1q-5.61-7.81-11.23-15.61c-.28-.39-.54-.79-.81-1.19,0-.39.21-.39.49-.26A48.4,48.4,0,0,1,20.05,33c2.11,1.2,4.18,2.45,6.24,3.72a1.76,1.76,0,0,0,2-.18q5.61-3.33,11.24-6.62c.37-.22.76-.42,1.43-.79Z"/></g></g></svg>