<svg xmlns="http://www.w3.org/2000/svg" viewBox="0 0 54 54"><defs><style>.cls-1{fill:#f9c573;}</style></defs><g id="Layer_2" data-name="Layer 2"><g id="Layer_1-2" data-name="Layer 1"><path class="cls-1" d="M27,0A27,27,0,1,0,54,27,27,27,0,0,0,27,0ZM41.53,38.85c-1.16,4.4-.73,3.63-4.84,3.69-3.27,0-6.54,0-9.81,0H15c-1.73,0-1.84-.23-1.38-1.86.55-2,1-3.92,1.54-5.88.29-1,0-1.47-1.12-1.31-1.65.23-1.91-.07-1.58-1.67a10.1,10.1,0,0,0,.28-1.21,3.31,3.31,0,0,1,2.8-3.14,2.69,2.69,0,0,0,2.17-2.33c1.06-4.34,2.23-8.65,3.34-13,.58-2.27.89-2.53,3.18-2.53h6.22c2.21,0,2.35.23,1.79,2.3-.77,2.85-1.49,5.71-2.22,8.56-.11.44-.36.93,0,1.3s.88,0,1.3-.12c.69-.23,1.42-.76,2.07-.16s.22,1.47.13,2.23c-.25,1.95-1,3.31-3.17,3.77a3.71,3.71,0,0,0-3.19,3.75,11.22,11.22,0,0,1-.66,2.39c-.4,1.36-.2,1.68,1.22,1.69,3.74,0,7.47,0,11.2,0C42.31,35.36,42.41,35.52,41.53,38.85Z"/></g></g></svg>