<svg xmlns="http://www.w3.org/2000/svg" viewBox="0 0 54 54"><defs><style>.cls-1{fill:#f9c573;}</style></defs><g id="Layer_2" data-name="Layer 2"><g id="Layer_1-2" data-name="Layer 1"><path class="cls-1" d="M27,0A27,27,0,1,0,54,27,27,27,0,0,0,27,0ZM41.28,37.91a7.86,7.86,0,0,1-5.07,6.38C31.58,46,25.93,42.14,26.49,37a6.45,6.45,0,0,1,.78-3.59c.84-1.56.5-3-.76-3.68a2.66,2.66,0,0,0-3.76,1.09,7.54,7.54,0,0,1-14-2.16c-.56-3.85,1.33-7.37,4.6-8.53,3.51-1.25,7.34-.1,9,3a2.81,2.81,0,0,0,4.8.51,2.79,2.79,0,0,0-.15-3,7.61,7.61,0,0,1-.15-7.33,7.14,7.14,0,0,1,6.93-4,7.14,7.14,0,0,1,6.83,5A7.64,7.64,0,0,1,34,24.45l-.41,0c-1.72.1-2.78,1-2.85,2.33a3.17,3.17,0,0,0,2.86,2.81,8.85,8.85,0,0,1,3.68.88A7.29,7.29,0,0,1,41.28,37.91Z"/></g></g></svg>